<svg version="1.1" id="Layer_1" xmlns="http://www.w3.org/2000/svg" xmlns:xlink="http://www.w3.org/1999/xlink" x="0px" y="0px"
	 width="100%" viewBox="0 0 1024 1024" enable-background="new 0 0 1024 1024" xml:space="preserve">
<path fill="#000000" opacity="1.000000" stroke="none" 
	d="
M436.115417,572.816895 
	C418.377563,572.878052 401.047394,573.030579 383.719177,572.907837 
	C367.698120,572.794250 358.836609,563.651245 358.813965,547.515991 
	C358.781219,524.187683 358.780396,500.859253 358.802612,477.530914 
	C358.818298,461.070251 368.132996,451.700653 384.429138,451.689697 
	C399.592590,451.679504 414.756012,451.683868 429.919464,451.681885 
	C431.862946,451.681610 433.806396,451.681854 435.821655,451.681854 
	C435.789673,448.857880 433.996857,447.929382 432.795563,446.703491 
	C428.830994,442.657806 424.653778,438.818024 420.743317,434.722473 
	C417.633575,431.465546 414.940704,429.560425 409.618591,430.902679 
	C399.743622,433.393188 390.439972,425.471130 389.079773,414.716980 
	C387.852112,405.010376 395.868195,395.414612 405.794067,394.708832 
	C416.205811,393.968506 425.052917,401.539551 425.251953,411.722717 
	C425.315674,414.983582 426.308594,417.296997 428.558777,419.620483 
	C435.963989,427.266968 443.137329,435.138062 450.749023,443.297272 
	C453.179596,440.207275 452.655487,438.349457 452.660583,436.685852 
	C452.714539,419.023102 452.685669,401.360138 452.706879,383.697266 
	C452.725983,367.805328 461.926483,358.660858 477.870117,358.659607 
	C501.365143,358.657776 524.860229,358.642670 548.355164,358.677124 
	C562.583801,358.697968 571.542908,366.212158 572.454773,380.491150 
	C573.345093,394.432129 572.848694,408.462036 572.946411,422.453033 
	C572.974121,426.420990 572.950623,430.389282 572.950623,434.340027 
	C575.647034,434.766052 576.408264,432.950592 577.483887,431.885742 
	C584.469727,424.969757 591.299805,417.895355 598.335327,411.031067 
	C600.681213,408.742310 601.464417,406.583191 600.989868,403.154785 
	C599.532288,392.624573 606.719116,382.639709 616.549011,380.733398 
	C627.068298,378.693451 636.673767,384.318817 639.665039,394.271179 
	C643.899841,408.360992 632.112793,422.118347 617.496521,420.078949 
	C615.526001,419.803955 613.717346,419.027283 611.954407,420.835052 
	C605.672913,427.276154 599.254211,433.583313 592.965149,440.017090 
	C589.606873,443.452606 586.407471,447.043457 582.963501,450.750336 
	C584.755066,452.315430 586.645569,451.717682 588.317810,451.724457 
	C606.480347,451.798218 624.643738,451.712891 642.805603,451.844879 
	C654.305847,451.928406 662.418579,457.803650 665.644165,467.806305 
	C666.540466,470.585876 666.490967,473.400726 666.492065,476.211945 
	C666.501587,500.039886 665.923584,523.883118 666.617676,547.689819 
	C667.017212,561.394409 657.648499,573.117432 641.466431,573.011719 
	C625.637268,572.908386 609.806763,572.999573 593.976868,573.005188 
	C592.183899,573.005798 590.390991,573.005249 588.080017,573.005249 
	C588.974670,575.632690 590.595886,576.827637 591.939148,578.178833 
	C596.402954,582.669067 601.051819,586.982849 605.376160,591.601685 
	C608.733948,595.188232 611.823608,597.122559 617.430908,596.071106 
	C626.987427,594.279297 636.055420,602.843933 636.970886,613.148560 
	C637.827942,622.795654 629.755249,631.915344 619.961670,632.363892 
	C609.111694,632.860840 600.635620,625.677307 600.684631,615.381287 
	C600.704224,611.277161 599.358276,608.526611 596.520386,605.844238 
	C590.225037,599.893921 584.179199,593.680298 577.968933,587.638550 
	C576.713135,586.416809 575.698364,584.765259 573.259521,584.345093 
	C572.826416,592.049133 572.260315,599.585876 572.557007,607.206055 
	C573.068909,620.352905 573.371338,633.516907 572.366211,646.656250 
	C571.595886,656.726379 565.249451,663.962402 555.280090,666.163635 
	C552.539612,666.768677 549.668457,667.015076 546.856018,667.023987 
	C523.527832,667.097900 500.199341,667.114441 476.871063,667.071838 
	C462.337677,667.045227 452.876892,657.506714 452.810120,642.868103 
	C452.734863,626.371887 452.755005,609.875244 452.682617,593.378967 
	C452.675659,591.789978 453.160461,590.095215 451.893402,588.128906 
	C444.746277,595.279602 437.726410,602.298340 430.712036,609.322571 
	C426.286560,613.754333 422.634033,617.604919 423.563599,625.418823 
	C424.851593,636.245972 414.112885,645.312927 403.287872,644.757202 
	C392.167633,644.186279 383.417389,634.603271 384.168518,623.818176 
	C384.993469,611.972351 394.561646,603.395081 406.033234,604.945557 
	C409.913330,605.469971 412.187866,604.421387 414.681763,601.844910 
	C423.692078,592.536194 432.872406,583.392029 442.014008,574.160034 
	C440.144135,572.132935 438.288116,572.694641 436.115417,572.816895 
M497.444580,384.943451 
	C490.207001,392.316589 483.111603,399.837097 475.679108,407.008209 
	C471.132050,411.395416 469.281616,416.503967 469.330688,422.657806 
	C469.423615,434.322693 469.366150,445.988953 469.334229,457.654510 
	C469.311462,465.966125 466.943359,468.342438 458.645630,468.350494 
	C433.981110,468.374481 409.316528,468.352295 384.652039,468.386383 
	C377.312836,468.396515 375.422485,470.282349 375.401825,477.500977 
	C375.370361,488.499908 375.484314,499.500061 375.352325,510.497498 
	C375.294708,515.297607 376.805511,519.218201 380.221893,522.594666 
	C389.703949,531.965942 399.122498,541.401917 408.505402,550.872498 
	C412.001526,554.401367 416.066559,555.942810 421.066742,555.876404 
	C433.563416,555.710510 446.064209,555.765503 458.562561,555.847900 
	C466.538422,555.900452 469.344879,558.810608 469.349274,566.721375 
	C469.363068,591.385864 469.349213,616.050354 469.375854,640.714844 
	C469.384491,648.709900 470.627533,649.901001 478.720612,649.915649 
	C489.219696,649.934753 499.721619,649.795959 510.216553,650.009766 
	C515.032288,650.107910 518.984619,648.762512 522.384583,645.362549 
	C531.808899,635.938232 541.275024,626.555237 550.780762,617.213013 
	C554.589722,613.469482 556.111755,609.059692 556.022888,603.718323 
	C555.823181,591.722656 555.914551,579.721313 555.965454,567.722595 
	C556.004089,558.625183 558.889832,555.791931 567.996643,555.785034 
	C592.494446,555.766479 616.992249,555.782166 641.490051,555.760986 
	C648.496399,555.754883 649.735901,554.536621 649.746948,547.687683 
	C649.765259,536.355347 649.522034,525.017151 649.826172,513.693176 
	C649.972839,508.232635 648.144348,503.973511 644.400757,500.301422 
	C635.479370,491.550476 626.516052,482.842072 617.629578,474.055847 
	C613.477112,469.950226 608.637146,468.170044 602.756714,468.273682 
	C590.261536,468.493866 577.759644,468.427734 565.261536,468.338287 
	C559.485962,468.296967 556.723022,465.631622 556.200378,459.900848 
	C555.989075,457.584137 556.058228,455.239044 556.053284,452.906769 
	C556.003784,429.742310 556.003174,406.577698 555.899109,383.413544 
	C555.870850,377.119019 554.070251,375.402557 547.838928,375.366455 
	C538.673340,375.313324 529.464600,375.908112 520.353210,375.204224 
	C511.032104,374.484131 503.738251,377.290680 497.444580,384.943451 
M377.059631,543.249817 
	C374.062164,544.478760 376.077728,547.057312 375.789185,548.885681 
	C375.141052,552.992249 377.270233,555.544006 381.670197,555.664185 
	C383.918213,555.725647 386.169312,555.674988 389.874481,555.674988 
	C385.061401,550.959595 381.299591,547.274170 377.059631,543.249817 
M555.713440,644.985413 
	C555.695129,642.478027 556.170654,639.914429 555.614685,638.299194 
	C551.762756,642.138428 547.916992,645.971436 544.158875,649.717163 
	C547.880005,648.796265 553.298523,652.338196 555.713440,644.985413 
M409.506439,623.784119 
	C408.528900,620.687073 406.505371,618.970581 403.183716,619.473083 
	C401.020477,619.800415 399.639496,621.233276 399.328430,623.482361 
	C398.913757,626.480652 399.745483,628.931091 402.993195,629.554810 
	C406.891327,630.303467 408.883881,628.159607 409.506439,623.784119 
M639.741516,471.986755 
	C642.524170,475.180542 645.306824,478.374329 648.780090,482.360779 
	C651.200745,469.822540 647.747559,466.543732 637.187805,469.351959 
	C637.923706,470.122650 638.600769,470.831726 639.741516,471.986755 
M625.332520,398.178497 
	C623.873230,395.418976 621.579468,394.505310 618.712830,395.550201 
	C616.734375,396.271362 615.495789,397.857269 615.412842,400.058289 
	C615.322021,402.469025 616.541443,404.142517 618.706482,405.081482 
	C622.381104,406.675201 625.161560,404.142822 625.332520,398.178497 
M469.640686,385.159973 
	C470.134583,386.867340 471.000580,387.440277 472.429199,386.014496 
	C475.636749,382.813324 478.824646,379.592499 482.483612,375.914215 
	C470.437469,375.626770 469.488159,376.308044 469.640686,385.159973 
M623.311523,614.372314 
	C622.888672,610.787476 620.832764,608.923584 617.302185,609.588684 
	C614.606079,610.096497 613.863647,612.400452 614.176270,614.950928 
	C614.420532,616.944153 615.540527,618.329102 617.553284,618.683228 
	C620.476257,619.197449 622.223511,617.714417 623.311523,614.372314 
M403.673462,415.536530 
	C407.624725,418.435913 410.930481,417.870850 411.677094,414.120270 
	C412.052277,412.235535 411.678558,410.485657 410.055359,409.221924 
	C408.606628,408.094025 406.948181,407.911194 405.413086,408.802582 
	C403.064148,410.166504 402.713043,412.375122 403.673462,415.536530 
z"/>
<path fill="#000000" opacity="1.000000" stroke="none" 
	d="
M555.461426,500.515442 
	C563.301514,504.983032 570.785095,509.345703 578.361328,513.540894 
	C581.911682,515.506836 585.540527,515.797485 589.628418,512.494995 
	C580.898621,506.426849 572.543640,500.619263 564.188721,494.811676 
	C564.374878,494.385223 564.561096,493.958771 564.747253,493.532288 
	C578.816772,496.837799 590.955444,507.687592 606.696960,506.431366 
	C606.434692,503.326630 604.828552,503.227203 603.733215,502.734314 
	C588.241089,495.764069 572.735046,488.824646 557.205505,481.938110 
	C549.869324,478.684845 547.716064,479.847900 546.265991,487.609863 
	C544.391663,497.642517 537.009338,504.937683 527.464783,506.499390 
	C524.136230,507.044006 522.668396,506.265686 523.222046,502.677826 
	C523.550659,500.548462 523.680481,498.367523 523.663574,496.211609 
	C523.646729,494.065216 524.449585,492.681000 526.554626,492.194489 
	C531.749817,490.993866 534.058899,487.057343 534.529968,482.415802 
	C535.842957,469.477020 549.195984,464.844940 559.761780,470.093079 
	C579.294678,479.795319 599.259888,488.636810 619.153320,497.596252 
	C623.301208,499.464355 623.482239,501.234344 620.922302,504.568634 
	C615.831177,511.199860 609.820068,516.105896 601.008911,516.203979 
	C598.697876,516.229736 597.431641,517.717346 595.935486,519.007324 
	C591.293091,523.009766 585.956970,525.183838 579.824402,524.075317 
	C577.198242,523.600647 575.473083,524.444519 573.439453,525.759521 
	C568.272522,529.100525 562.731812,531.179932 556.436096,529.265869 
	C555.484314,528.976501 554.372620,528.810852 553.658020,528.206177 
	C546.422913,522.083923 541.379517,514.374573 536.785950,505.807922 
	C540.172546,505.075623 541.583984,507.022247 543.221069,508.226166 
	C547.649048,511.482605 551.879211,515.012512 556.361328,518.189209 
	C559.782532,520.614075 563.486389,521.911011 567.742920,518.176575 
	C562.754395,511.334961 555.384033,506.749329 550.450623,499.740692 
	C552.494202,498.262970 553.729187,499.925873 555.461426,500.515442 
z"/>
<path fill="#000000" opacity="1.000000" stroke="none" 
	d="
M426.513092,500.550964 
	C423.707123,501.969147 420.833771,502.531219 418.685730,505.011200 
	C421.296387,507.661102 424.198914,507.920593 427.331818,506.636658 
	C435.494263,503.291504 443.629700,499.880310 451.771790,496.485565 
	C454.602264,495.305420 457.358704,493.863647 460.740448,494.181244 
	C453.384155,501.347107 444.222565,506.061340 436.107697,512.632812 
	C439.458893,516.115601 442.646332,516.254883 446.020691,514.368774 
	C453.722351,510.063812 461.359131,505.642822 469.063446,501.342743 
	C470.600800,500.484680 472.042664,499.164490 474.930237,499.644073 
	C470.460876,506.996887 463.134766,511.356964 458.378357,518.100342 
	C461.408264,521.480652 464.549835,521.134827 467.880585,519.202209 
	C472.666748,516.424927 476.614014,512.549133 480.970673,509.209412 
	C482.921204,507.714203 484.805115,506.085876 487.863007,505.434143 
	C487.454865,510.126160 484.415741,512.787476 482.121613,515.834045 
	C481.027649,517.286804 479.594757,518.548096 478.775909,520.133911 
	C473.324402,530.690979 463.211823,533.286926 453.118774,526.303894 
	C450.484528,524.481323 448.221466,523.611206 444.943207,524.187866 
	C438.930023,525.245544 433.897491,522.476440 429.389313,518.815796 
	C427.517242,517.295715 425.688843,516.372498 423.163849,516.202087 
	C414.009674,515.584290 408.039673,510.060944 403.352783,502.721771 
	C401.490509,499.805695 403.593414,498.913269 405.639832,497.973480 
	C420.316956,491.232849 434.995361,484.494965 449.682434,477.775970 
	C455.586395,475.075012 461.474274,472.333435 467.437958,469.769623 
	C478.585083,464.977356 487.776062,469.484192 490.756592,481.288177 
	C492.078217,486.522339 493.612030,491.254700 499.949585,492.253326 
	C502.002686,492.576813 502.195801,494.439850 502.220093,496.183624 
	C502.245605,498.015717 502.155457,499.860352 502.338165,501.677124 
	C502.775909,506.029846 500.556610,506.948761 496.888947,506.034943 
	C486.993073,503.569366 481.194519,497.140411 478.920380,487.339508 
	C477.101471,479.500793 475.460968,478.716064 467.902924,482.088776 
	C454.221161,488.194153 440.539856,494.300629 426.513092,500.550964 
z"/>
<path fill="#000000" opacity="1.000000" stroke="none" 
	d="
M504.119019,463.808167 
	C504.293488,459.359772 502.890015,456.248077 500.175262,453.097076 
	C494.204285,446.166351 495.306244,435.428741 501.979431,429.675507 
	C508.594574,423.972290 518.510986,424.466858 524.596924,430.803467 
	C530.965149,437.434021 531.119690,447.580841 524.657349,454.207397 
	C522.379333,456.543304 521.439148,458.945709 521.345764,462.157227 
	C520.730957,483.289062 519.963867,504.416473 519.228516,525.544739 
	C519.073364,530.002197 512.208496,534.604309 508.187836,532.982910 
	C506.333862,532.235229 506.735809,530.531738 506.682861,529.119385 
	C505.984253,510.487854 505.333984,491.854492 504.651001,473.222321 
	C504.541321,470.230438 504.331085,467.242249 504.119019,463.808167 
z"/>
<path fill="#000000" opacity="1.000000" stroke="none" 
	d="
M533.257324,528.369995 
	C535.908142,526.521667 537.915649,524.697693 537.355713,521.032104 
	C534.297485,521.615295 532.018311,523.691528 529.060120,523.300964 
	C526.232422,522.927673 523.476318,522.143982 523.041016,519.076111 
	C522.600586,515.972046 525.406250,514.979858 527.813599,514.232056 
	C533.519531,512.459534 542.329346,515.935120 545.281799,521.013367 
	C548.329529,526.255493 547.104675,531.926514 541.743103,537.115845 
	C536.385803,542.301086 529.458679,544.256714 522.576965,546.226074 
	C516.509521,547.962402 510.256592,549.134094 504.675140,552.281982 
	C496.767365,556.742004 496.206421,562.388794 502.938141,568.509094 
	C504.604858,570.024414 508.111511,571.558289 505.000153,574.265198 
	C502.496582,576.443359 500.452209,580.693909 495.437378,577.334839 
	C480.871429,567.578186 481.544464,548.742676 497.047821,540.392578 
	C505.345001,535.923767 514.439880,533.815613 523.532104,531.739990 
	C526.778442,530.998962 530.044312,530.324280 533.257324,528.369995 
z"/>
<path fill="#000000" opacity="1.000000" stroke="none" 
	d="
M525.979736,564.667664 
	C527.294312,559.136963 527.294312,559.136963 519.974670,550.231262 
	C523.046204,547.778442 526.888611,547.209045 530.404846,546.043152 
	C532.156250,545.462402 533.308411,547.365784 534.377625,548.606262 
	C542.323914,557.825378 540.072388,571.172058 529.221436,577.792664 
	C525.697815,579.942505 521.669861,581.258484 517.898743,583.012268 
	C514.885376,584.413696 511.713196,585.599182 508.961243,587.411560 
	C502.967316,591.359131 502.053253,596.484375 506.266663,602.235962 
	C508.000885,604.603210 508.683655,606.413391 506.233521,608.665161 
	C503.525818,611.153625 501.984100,608.818298 500.371857,607.369263 
	C491.532928,599.425049 492.902985,584.885315 503.127167,578.087036 
	C507.859039,574.940735 512.951050,572.476257 518.279846,570.480652 
	C521.267090,569.361938 524.107483,567.948914 525.979736,564.667664 
z"/>
<path fill="#000000" opacity="1.000000" stroke="none" 
	d="
M529.668640,589.936401 
	C531.352478,599.856018 528.149414,606.574951 519.856689,611.152710 
	C518.253479,612.037781 516.593201,612.819275 514.960205,613.650513 
	C506.320801,618.048279 504.081909,622.979004 506.489441,632.310181 
	C506.651276,632.937439 506.988068,633.571533 506.355347,634.138184 
	C500.581940,630.077148 499.077087,622.143982 502.593811,615.123962 
	C505.137512,610.046204 509.679016,607.332336 514.314270,604.638611 
	C522.688660,599.772095 523.524109,596.968018 518.764648,588.786194 
	C517.506775,586.623840 518.036682,585.427002 519.937622,584.334717 
	C521.868835,583.224976 523.712891,580.991272 526.035950,583.538147 
	C527.613037,585.267273 528.803650,587.286865 529.668640,589.936401 
z"/>
<path fill="#000000" opacity="1.000000" stroke="none" 
	d="
M490.678497,514.200928 
	C493.921082,513.543091 496.729126,513.530518 499.401489,514.762817 
	C501.128937,515.559387 502.633484,516.748657 502.599701,518.833435 
	C502.561676,521.178528 500.797760,522.375061 498.841583,522.973633 
	C495.521851,523.989563 492.299988,523.176758 489.102539,521.372742 
	C487.234131,526.003662 490.251434,527.963623 492.894348,529.666870 
	C495.610229,531.417175 498.715576,532.563232 503.149323,534.693970 
	C497.248291,536.113831 494.408356,541.831665 488.633484,539.164856 
	C482.167908,536.179138 479.014038,530.837952 479.657898,524.491089 
	C480.305389,518.107971 484.618011,515.497681 490.678497,514.200928 
z"/>
<path fill="#000000" opacity="1.000000" stroke="none" 
	d="
M514.231323,637.687439 
	C513.978760,639.874207 514.402588,641.845032 512.625549,643.064026 
	C510.954102,642.921143 510.877563,641.670044 510.785767,640.527039 
	C510.413269,635.889343 510.450439,631.184753 509.656250,626.623291 
	C508.621429,620.679810 510.528015,616.989075 516.050110,614.419373 
	C518.983521,613.054260 520.499268,613.102478 522.013611,615.961609 
	C525.123413,621.833069 523.447571,630.615723 517.784241,634.597473 
	C519.243042,628.690247 521.704834,622.954346 515.431702,617.928955 
	C515.012207,624.766785 514.629333,631.007690 514.231323,637.687439 
z"/>
<path fill="#000000" opacity="1.000000" stroke="none" 
	d="
M507.758728,555.579895 
	C510.055054,551.928162 513.557190,551.693237 517.510864,550.844727 
	C518.666382,556.670837 518.763306,562.349365 517.464966,567.689331 
	C516.543518,571.478821 511.954956,571.128357 508.130280,572.623169 
	C507.284393,566.793213 507.726410,561.390198 507.758728,555.579895 
z"/>
<path fill="#000000" opacity="1.000000" stroke="none" 
	d="
M508.652954,593.349792 
	C508.472717,588.219360 512.163330,587.544739 515.210449,586.091858 
	C517.927063,590.558838 516.914612,601.638367 513.820374,603.611145 
	C510.402893,605.789978 509.010132,605.189514 508.742462,601.259888 
	C508.573669,598.782043 508.675415,596.285828 508.652954,593.349792 
z"/>
</svg>